HIERARCHY
ROOT Hips
{
	OFFSET 0.00000 0.00000 0.00000
	CHANNELS 6 Xposition Yposition Zposition Zrotation Yrotation Xrotation 
	JOINT LHipJoint
	{
		OFFSET 0 0 0
		CHANNELS 3 Zrotation Yrotation Xrotation
		JOINT LeftHip
		{
			OFFSET 1.55766 -1.60504 1.11378
			CHANNELS 3 Zrotation Yrotation Xrotation
			JOINT LeftKnee
			{
				OFFSET 2.29047 -6.29302 0.00000
				CHANNELS 3 Zrotation Yrotation Xrotation
				JOINT LeftAnkle
				{
					OFFSET 2.52265 -6.93093 0.00000
					CHANNELS 3 Zrotation Yrotation Xrotation
					JOINT LeftToe
					{
						OFFSET 0.17633 -0.48446 2.02656
						CHANNELS 3 Zrotation Yrotation Xrotation
						End Site
						{
							OFFSET 0.00000 -0.00000 1.04989
						}
					}
				}
			}
		}
	}
	JOINT RHipJoint
	{
		OFFSET 0 0 0
		CHANNELS 3 Zrotation Yrotation Xrotation
		JOINT RightHip
		{
			OFFSET -1.48599 -1.60504 1.11378
			CHANNELS 3 Zrotation Yrotation Xrotation
			JOINT RightKnee
			{
				OFFSET -2.27280 -6.24448 0.00000
				CHANNELS 3 Zrotation Yrotation Xrotation
				JOINT RightAnkle
				{
					OFFSET -2.50834 -6.89161 0.00000
					CHANNELS 3 Zrotation Yrotation Xrotation
					JOINT RightToe
					{
						OFFSET -0.26967 -0.74090 2.08741
						CHANNELS 3 Zrotation Yrotation Xrotation
						End Site
						{
							OFFSET -0.00000 -0.00000 1.10614
						}
					}
				}
			}
		}
	}
	JOINT lowerback
	{
		OFFSET 0 0 0
		CHANNELS 3 Zrotation Yrotation Xrotation
		JOINT Chest
		{
			OFFSET 0.06481 2.02437 -0.08472
			CHANNELS 3 Zrotation Yrotation Xrotation
			JOINT Chest2
			{
				OFFSET 0.00015 1.96711 0.18069
				CHANNELS 3 Zrotation Yrotation Xrotation
				JOINT lowerneck
				{
					OFFSET 0 0 0
					CHANNELS 3 Zrotation Yrotation Xrotation
					JOINT Neck
					{
						OFFSET -0.29961 1.68293 -0.13041
						CHANNELS 3 Zrotation Yrotation Xrotation
						JOINT Head
						{
							OFFSET 0.59697 1.61501 -0.14669
							CHANNELS 3 Zrotation Yrotation Xrotation
							End Site
							{
								OFFSET 0.22973 1.74906 -0.10148
							}
						}
					}
				}
				JOINT LeftCollar
				{
					OFFSET 0 0 0
					CHANNELS 3 Zrotation Yrotation Xrotation
					JOINT LeftShoulder
					{
						OFFSET 3.37968 1.02893 0.31147
CHANNELS 3 Zrotation Xrotation Yrotation
						JOINT LeftElbow
						{
OFFSET 0 -5.198070 -0.000000
CHANNELS 3 Zrotation Xrotation Yrotation
							JOINT LeftWrist
							{
OFFSET 0 -3.093700 -0.000000
CHANNELS 3 Zrotation Xrotation Yrotation
								JOINT lhand
								{
									OFFSET 0 0 0
CHANNELS 3 Zrotation Xrotation Yrotation
									JOINT LFingers
									{
OFFSET 0 -0.672630 -0.000000
CHANNELS 3 Zrotation Xrotation Yrotation
										End Site
										{
OFFSET 0 -0.542290 -0.000000
										}
									}
								}
								JOINT LThumb
								{
OFFSET 0 0.000000 0.000000
CHANNELS 3 Zrotation Xrotation Yrotation
									End Site
									{
OFFSET 0 -0.550570 0.550570
									}
								}
							}
						}
					}
				}
				JOINT RightCollar
				{
					OFFSET 0 0 0
					CHANNELS 3 Zrotation Yrotation Xrotation
					JOINT RightShoulder
					{
						OFFSET -3.38254 0.96355 -0.16120
CHANNELS 3 Zrotation Xrotation Yrotation
						JOINT RightElbow
						{
OFFSET 0 -5.452220 -0.000000
CHANNELS 3 Zrotation Xrotation Yrotation
							JOINT RightWrist
							{
OFFSET 0 -3.012840 -0.000000
CHANNELS 3 Zrotation Xrotation Yrotation
								JOINT rhand
								{
									OFFSET 0 0 0
CHANNELS 3 Zrotation Xrotation Yrotation
									JOINT RFingers
									{
OFFSET 0 -0.622300 -0.000000
CHANNELS 3 Zrotation Xrotation Yrotation
										End Site
										{
OFFSET 0 -0.501710 -0.000000
										}
									}
								}
								JOINT RThumb
								{
OFFSET 0 0.000000 0.000000
CHANNELS 3 Zrotation Xrotation Yrotation
									End Site
									{
OFFSET 0 -0.509370 0.509370
									}
								}
							}
						}
					}
				}
			}
		}
	}
}
MOTION
Frames: 9
Frame Time: 0.008333333333333333
-6.889500 15.830800 39.319200 -178.110000 -3.274800 -167.490000 0.000000 0.000000 0.000000 -19.140900 -4.189700 -25.579800 3.153000 10.938700 32.073300 1.226400 -10.930900 -20.097600 0.000600 -0.153700 -0.422400 0.000000 0.000000 0.000000 25.199700 -9.487100 -28.429100 -2.483600 -9.808000 28.357200 1.286000 30.851400 -14.392300 -0.003000 0.351600 -0.966100 4.684600 3.392500 -4.630800 -0.818800 3.588100 -8.970200 -3.449600 1.059100 -6.421200 -32.147600 -4.029700 12.273800 39.018800 -13.220800 -0.065400 20.606900 -8.896600 3.001900 0.000000 0.000000 0.000000 5.255200 12.964800 -47.322600 17.959000 -28.104600 4.529900 14.614600 -37.811300 9.161800 0.000000 0.000000 0.000000 -7.125000 0.000000 0.000000 -8.824900 20.567500 -5.223500 0.000000 0.000000 0.000000 -1.447300 8.948600 24.937300 -12.945500 -21.207300 -2.433500 -7.675100 24.544900 0.525200 0.000000 0.000000 0.000000 7.125000 0.000000 -0.000000 14.840800 30.315700 5.486100
-6.930359 15.810488 39.282653 -177.789070 -3.709006 -167.385122 0.000000 0.000000 0.000000 -18.721377 -5.809023 -25.262476 3.250445 11.089852 32.583447 1.339916 -9.753234 -20.811886 0.001788 -0.275186 -0.756146 0.000000 0.000000 0.000000 25.283691 -8.931507 -28.037128 -2.493356 -9.825861 28.414598 0.928172 29.727928 -15.567820 -0.018295 0.871493 -2.395238 4.898387 3.205650 -4.511567 -0.655189 3.344862 -9.029694 -3.404229 0.920858 -6.575773 -32.244270 -4.525738 15.595049 39.987300 -14.581251 -3.255992 21.239538 -9.970848 2.239395 0.000000 0.000000 0.000000 4.964023 13.227876 -46.863547 17.865378 -27.984431 4.485927 14.181441 -37.354485 9.208459 0.000000 0.000000 0.000000 -7.125000 0.000000 0.000000 -9.132867 20.541263 -5.415888 0.000000 0.000000 0.000000 -1.564502 9.126295 24.957475 -13.026445 -21.325925 -2.462934 -7.765226 24.611794 0.514529 0.000000 0.000000 0.000000 7.125000 0.000000 0.000000 14.769660 30.307293 5.461185
-6.974493 15.794163 39.234877 -177.501068 -4.070208 -167.422050 0.000000 0.000000 0.000000 -18.448057 -7.009162 -24.785657 3.315589 11.189197 32.920500 1.424277 -8.899326 -21.381622 0.001812 -0.273450 -0.751473 0.000000 0.000000 0.000000 25.274954 -8.024027 -27.381876 -2.505656 -9.848161 28.486498 0.489837 27.991509 -16.806810 -0.047837 1.411454 -3.881756 4.996915 3.036741 -4.292624 -0.489114 3.155016 -8.971736 -3.293692 0.832091 -6.660846 -32.013286 -5.265389 18.232621 40.656701 -16.098281 -5.945551 21.558153 -11.041529 1.771060 0.000000 0.000000 0.000000 4.834630 13.364063 -46.610325 17.811856 -27.915671 4.460790 13.709501 -37.246082 9.272741 0.000000 0.000000 0.000000 -7.125000 0.000000 0.000000 -9.467481 20.498705 -5.628862 0.000000 0.000000 0.000000 -1.705792 9.204498 24.986692 -13.124476 -21.469360 -2.498662 -7.727545 24.420864 0.528934 0.000000 0.000000 0.000000 7.125000 0.000000 0.000000 14.800896 30.320529 5.468598
-7.018604 15.777926 39.173561 -177.309801 -4.256686 -167.549736 0.000000 0.000000 0.000000 -18.381484 -7.578032 -24.274683 3.355325 11.249135 33.124807 1.490599 -8.446857 -21.856064 0.000868 -0.186923 -0.513531 0.000000 0.000000 0.000000 25.011106 -6.104842 -26.122274 -2.515878 -9.866698 28.546039 -0.074355 25.048652 -18.171297 -0.091126 1.945897 -5.356194 4.853390 2.853287 -3.981981 -0.340448 2.965180 -8.834419 -3.068612 0.768494 -6.721041 -31.679280 -5.870759 20.259905 41.465374 -17.282567 -8.371862 21.979303 -11.929452 1.365013 0.000000 0.000000 0.000000 4.775896 13.495497 -46.126895 17.871829 -27.992758 4.488912 13.933334 -37.641787 9.082040 0.000000 0.000000 0.000000 -7.125000 0.000000 0.000000 -9.314345 20.681588 -5.496467 0.000000 0.000000 0.000000 -1.812814 9.071426 24.935426 -13.123146 -21.467388 -2.498172 -7.588350 24.485768 0.561839 0.000000 0.000000 0.000000 7.125000 0.000000 0.000000 14.913216 30.349444 5.502061
-7.063211 15.760424 39.098341 -177.198119 -4.402395 -167.655050 0.000000 0.000000 0.000000 -18.444090 -7.660445 -23.882605 3.389909 11.300963 33.301625 1.550602 -8.420209 -22.294239 0.000524 -0.151679 -0.416648 0.000000 0.000000 0.000000 24.559413 -2.985827 -24.398646 -2.544721 -9.918728 28.713962 -0.672603 20.911776 -19.593810 -0.144520 2.449236 -6.749022 4.545858 2.649331 -3.754299 -0.221688 2.738551 -8.686074 -2.778237 0.697570 -6.727841 -31.158318 -6.502264 21.862367 42.055880 -18.474091 -10.101966 22.164566 -12.776844 1.173668 0.000000 0.000000 0.000000 4.741722 13.503958 -45.397593 17.795251 -27.894148 4.453004 14.571919 -37.765616 9.004897 0.000000 0.000000 0.000000 -7.125000 0.000000 0.000000 -8.860073 20.729487 -5.212074 0.000000 0.000000 0.000000 -1.800411 8.889392 24.583960 -13.082643 -21.408200 -2.483349 -7.611606 24.754436 0.550474 0.000000 0.000000 0.000000 7.125000 0.000000 0.000000 14.893589 30.338874 5.498267
-7.104599 15.736813 39.019684 -177.172711 -4.624671 -167.642219 0.000000 0.000000 0.000000 -18.564581 -7.685759 -23.720886 3.444442 11.381905 33.579066 1.601483 -8.624720 -22.665147 0.000480 -0.136687 -0.375602 0.000000 0.000000 0.000000 24.002570 1.615305 -22.630612 -2.682401 -10.162042 29.503230 -1.222318 15.381566 -21.082379 -0.256638 3.258380 -8.999063 4.084554 2.365708 -3.505891 -0.108169 2.403927 -8.540978 -2.405575 0.581826 -6.760541 -30.834056 -6.827967 23.052204 42.420346 -19.316511 -11.366819 23.007778 -13.424301 0.978403 0.000000 0.000000 0.000000 4.677569 13.596322 -44.415731 17.751047 -27.837261 4.432382 15.101684 -37.287425 9.088144 0.000000 0.000000 0.000000 -7.125000 0.000000 0.000000 -8.478598 20.618436 -5.004106 0.000000 0.000000 0.000000 -1.773579 8.711717 24.375947 -13.199927 -21.579461 -2.526374 -7.564771 24.438973 0.581707 0.000000 0.000000 0.000000 7.125000 0.000000 0.000000 14.934440 30.368192 5.503443
-7.141512 15.695178 38.940635 -177.430417 -4.779621 -167.661881 0.000000 0.000000 0.000000 -18.997654 -7.586905 -23.632133 3.529336 11.506202 34.006745 1.661155 -9.001645 -23.097466 0.000400 -0.128191 -0.352136 0.000000 0.000000 0.000000 23.356778 5.173038 -22.402275 -3.147062 -10.928488 32.040022 -1.480751 11.302422 -22.017649 -0.407986 4.098922 -11.355363 3.275374 2.044037 -3.098609 -0.081317 2.030312 -8.339677 -1.930900 0.472790 -6.827750 -30.353081 -7.262325 23.616425 42.868299 -20.075535 -12.171276 23.070145 -13.963698 1.012587 0.000000 0.000000 0.000000 4.800605 13.598714 -43.952802 17.798250 -27.898030 4.454414 15.163747 -37.313391 9.166254 0.000000 0.000000 0.000000 -7.125000 0.000000 0.000000 -8.432201 20.535354 -4.992017 0.000000 0.000000 0.000000 -1.706871 8.512297 24.254759 -13.479375 -21.985561 -2.630070 -7.415908 23.822833 0.553733 0.000000 0.000000 0.000000 7.125000 0.000000 0.000000 15.044821 30.337433 5.558241
-7.169567 15.645590 38.866325 -178.329110 -4.845617 -167.795701 0.000000 0.000000 0.000000 -20.181812 -7.086728 -23.265556 3.529723 11.506787 34.008785 1.692747 -9.724193 -23.348255 0.000200 -0.099621 -0.273755 0.000000 0.000000 0.000000 21.875992 7.417803 -23.967052 -4.122726 -12.321252 36.879020 -1.479332 9.373516 -21.815611 -0.755065 5.548657 -15.480507 1.834242 1.652260 -2.292700 -0.264879 1.574913 -8.024988 -1.325445 0.368371 -7.008252 -29.914670 -7.646074 23.728802 43.309289 -20.641943 -12.803776 23.107360 -14.371436 1.098855 0.000000 0.000000 0.000000 5.178818 13.497469 -44.117066 18.003862 -28.162101 4.551117 14.995543 -38.073609 9.366762 0.000000 0.000000 0.000000 -7.125000 0.000000 0.000000 -8.547143 20.339067 -5.099775 0.000000 0.000000 0.000000 -1.558528 8.165649 24.282568 -13.889551 -22.576605 -2.785602 -7.412727 23.142739 0.475141 0.000000 0.000000 0.000000 7.125000 0.000000 0.000000 15.035207 30.260841 5.583039
-7.194431 15.621016 38.795302 -179.753519 -4.822457 -168.292129 0.000000 0.000000 0.000000 -22.041719 -6.266372 -21.886073 3.304387 11.172039 32.862494 1.637813 -10.452804 -23.020459 0.000154 0.072397 0.198840 0.000000 0.000000 0.000000 19.602865 8.985349 -26.752632 -5.755714 -14.183793 43.986510 -1.219722 8.639576 -19.784740 -1.290076 7.195029 -20.295243 -0.027989 1.241743 -0.872297 -0.603938 1.077305 -7.557150 -0.644836 0.275341 -7.374276 -29.572631 -7.794368 23.866390 43.795143 -20.785059 -13.653882 23.374854 -14.571987 0.959751 0.000000 0.000000 0.000000 5.649888 13.209072 -44.641055 18.138086 -28.333562 4.614575 15.009436 -38.371486 9.443855 0.000000 0.000000 0.000000 -7.125000 0.000000 0.000000 -8.535284 20.259617 -5.108011 0.000000 0.000000 0.000000 -1.345583 7.651658 24.252770 -14.287319 -23.143913 -2.940072 -7.652647 22.570743 0.630343 0.000000 0.000000 0.000000 7.125000 0.000000 0.000000 14.874139 30.417656 5.461574
